<svg width="24" height="16" viewBox="0 0 24 16" xmlns="http://www.w3.org/2000/svg">
  <!-- Listras vermelhas e brancas -->
  <rect width="24" height="1.23" fill="#B22234"/>
  <rect y="1.23" width="24" height="1.23" fill="#FFFFFF"/>
  <rect y="2.46" width="24" height="1.23" fill="#B22234"/>
  <rect y="3.69" width="24" height="1.23" fill="#FFFFFF"/>
  <rect y="4.92" width="24" height="1.23" fill="#B22234"/>
  <rect y="6.15" width="24" height="1.23" fill="#FFFFFF"/>
  <rect y="7.38" width="24" height="1.23" fill="#B22234"/>
  <rect y="8.61" width="24" height="1.23" fill="#FFFFFF"/>
  <rect y="9.84" width="24" height="1.23" fill="#B22234"/>
  <rect y="11.07" width="24" height="1.23" fill="#FFFFFF"/>
  <rect y="12.3" width="24" height="1.23" fill="#B22234"/>
  <rect y="13.53" width="24" height="1.23" fill="#FFFFFF"/>
  <rect y="14.76" width="24" height="1.24" fill="#B22234"/>
  
  <!-- Cantão azul -->
  <rect width="9.6" height="7.38" fill="#3C3B6E"/>
  
  <!-- Estrelas no cantão (simplificadas) -->
  <circle cx="1.5" cy="1.5" r="0.3" fill="#FFFFFF"/>
  <circle cx="3" cy="1.5" r="0.3" fill="#FFFFFF"/>
  <circle cx="4.5" cy="1.5" r="0.3" fill="#FFFFFF"/>
  <circle cx="6" cy="1.5" r="0.3" fill="#FFFFFF"/>
  <circle cx="7.5" cy="1.5" r="0.3" fill="#FFFFFF"/>
  <circle cx="2.25" cy="2.5" r="0.3" fill="#FFFFFF"/>
  <circle cx="3.75" cy="2.5" r="0.3" fill="#FFFFFF"/>
  <circle cx="5.25" cy="2.5" r="0.3" fill="#FFFFFF"/>
  <circle cx="6.75" cy="2.5" r="0.3" fill="#FFFFFF"/>
  <circle cx="1.5" cy="3.5" r="0.3" fill="#FFFFFF"/>
  <circle cx="3" cy="3.5" r="0.3" fill="#FFFFFF"/>
  <circle cx="4.5" cy="3.5" r="0.3" fill="#FFFFFF"/>
  <circle cx="6" cy="3.5" r="0.3" fill="#FFFFFF"/>
  <circle cx="7.5" cy="3.5" r="0.3" fill="#FFFFFF"/>
</svg>


